<?xml version="1.0" encoding="utf-8"?>
<!-- Generated by IcoMoon.io -->
<!DOCTYPE svg PUBLIC "-//W3C//DTD SVG 1.1//EN" "http://www.w3.org/Graphics/SVG/1.1/DTD/svg11.dtd">
<svg version="1.1" xmlns="http://www.w3.org/2000/svg" xmlns:xlink="http://www.w3.org/1999/xlink" width="69" height="63" viewBox="0 0 69 63">
<path d="M16.017 56.782c-1.822 0-3.517-0.691-4.836-2.010-1.256-1.256-2.010-3.015-2.010-4.836s0.691-3.517 2.010-4.836l16.519-16.519-9.61-9.673c-0.314-0.314-0.44-0.754-0.314-1.193s0.44-0.754 0.879-0.879l39.634-10.615c0.44-0.126 0.879 0 1.193 0.314s0.44 0.754 0.314 1.193l-10.615 39.634c-0.126 0.44-0.44 0.754-0.879 0.879s-0.879 0-1.193-0.314l-9.673-9.673-16.582 16.582c-1.256 1.256-2.952 1.947-4.836 1.947zM21.419 18.718l9.045 9.045c0.251 0.251 0.377 0.565 0.377 0.942s-0.188 0.691-0.44 0.879c-0.126 0.063-0.188 0.188-0.314 0.314l-17.085 17.022c-0.817 0.817-1.256 1.884-1.256 3.078 0 1.131 0.44 2.261 1.256 3.078s1.884 1.256 3.078 1.256 2.261-0.44 3.078-1.256l17.022-17.022c0.126-0.126 0.188-0.188 0.314-0.314 0.251-0.251 0.565-0.44 0.879-0.44 0.377 0 0.691 0.126 0.942 0.377l9.045 8.919 9.485-35.426-35.426 9.547z" fill="#444444"></path>
</svg>
